<svg xmlns="http://www.w3.org/2000/svg" xmlns:xlink="http://www.w3.org/1999/xlink" width="300" height="300" class="bg-svg">
  <style>
  <![CDATA[
    .bg-svg > path {
      fill-opacity: 0;
      stroke: #3d3d3d;
      stroke-width: 3;
    }
  ]]>
  </style>
  <path d="M235.74 250.87l-15.93-23.57 30.58-13.37v-25.48l-32.02-15.29L235.74 150l-12.1-26.26 26.75-11.09V86.54l-26.75-11.05 12.1-25.89-10.83-24.84 25.48-12.11 26.75 12.11-12.1 24.84 12.1 26.11 10.19 23.57-10.19 25.48-12.1 26.75 12.1 24.84 10.19 23.57-10.19 25.47-12.1 25.48 12.1 25.15-26.75 12.43-26.43-12.04-23.89-10.89L150 288.45l-50.57-22.93-49.04 22.93-26.64-12.43"/>
  <path d="M265.49 250.55h-29.42l-12.43 25.16"/>
  <path d="M100.07 234.95l-22.93-10.19 10.19-24.21-10.8-24.29 23.54-10.74-26.12-28.03 26.12-36.94-18.92-27.94 18.92-8.36v-29.3l23.57-11.47 11.46 26.75-16.56 22.93L150 87.81v25.48l-23.82 22.29L135.1 150l-11.46 25.07-10.83 25.48 10.83 24.21 11.46 25.47h29.94l16.24-24.86L150 214.56v-26.75l30.96-14.65L165.04 150l11.46-26.52 11.47-24.84-11.47-23.57-11.46-24.84 11.46-26.75 23.57 11.47v29.3l23.57 10.82-10.19 23.57 10.19 24.84-23.57 12.1v29.94l18.47 7.64-18.47 27.39 18.47 26.12-18.47 8.28v30.57"/>
  <path d="M165.03 249.84l10.84 25.87"/>
  <path d="M87.33 300L76.5 276.35 66.31 249.6l10.75-24.67-27.31-11.64v-24.2l26.75-12.74L66.31 150l7.64-13.14-24.2-23.57V87.18l31.21-14.65L64.4 50.87l12.1-27.39-26.75-10.83-26.11 10.83 10.82 27.39-10.82 24.84-10.83 24.21 10.83 24.84L34.46 150l-10.82 26.35-10.83 24.2 10.83 24.21 10.82 24.84-10.82 26.75"/>
  <path d="M135.61 249.84l-11.5 25.87"/>
  <path d="M12.81 0l10.83 23.48L0 35.58"/>
  <path d="M166.27 150h-31.73"/>
  <path d="M300 35.58L276.81 24.7"/>
  <path d="M277.14 225.07l-26.75-11.11"/>
  <path d="M287.33 0l-10.52 25.59"/>
  <path d="M277.14 175.71L250.39 189"/>
  <path d="M0 64.25l23.64 11.46"/>
  <path d="M200.31 235.58l-19.03-10.51 19.03-25.11-19.03-26.53 19.03-8.55"/>
  <path d="M300 64.25l-22.86 11.46"/>
  <path d="M214.08 99.59h-25.89"/>
  <path d="M50.07 87.18L23.64 75.71"/>
  <path d="M200.31 135.58L150 113.29"/>
  <path d="M277.14 75.71l-26.75 11.47"/>
  <path d="M99.43 235.58v29.94"/>
  <path d="M50.07 300v-11.55"/>
  <path d="M50.07 0v12.65"/>
  <path d="M12.5 300l11.25-24.2"/>
  <path d="M150 214.28l-50.57 21.3"/>
  <path d="M112.81 199.96H87.33"/>
  <path d="M65.04 50.23H34.32"/>
  <path d="M50.07 189l-26.43-13.29"/>
  <path d="M0 265.52l23.64 10.19"/>
  <path d="M49.51 212.97l-25.87 12.1"/>
  <path d="M300 265.52l-22.86 10.19"/>
  <path d="M66.47 150.55H33.88"/>
  <path d="M224.64 24.59l-25 10.14"/>
  <path d="M0 135.58l50.07-22.29"/>
  <path d="M200.31 64.25l-49.9 22.93"/>
  <path d="M300 135.58l-50.5-22.84"/>
  <path d="M166.27 50.23h-31.73"/>
  <path d="M87.33 0L76.5 23.48"/>
  <path d="M177.23 23.48l-26.79-11.74"/>
  <path d="M99.43 35.58L76.5 23.48"/>
  <path d="M150 188.28l-25.89-12.57-24.04-10.19 26.4-29.94-27.04-35.42 19.25-26.98-19.25-8.93"/>
  <path d="M112.81 0l11.3 23.48"/>
  <path d="M287.33 300l-10.19-24.29"/>
  <path d="M112.81 300l11.3-24.29"/>
  <path d="M300 164.88l-22.86 10.83"/>
  <path d="M150 0v11.74l-25.89 11.74"/>
  <path d="M0 164.88l23.64 10.83"/>
  <path d="M150 300v-11.55"/>
  <path d="M0 235.58l23.64-10.51"/>
  <path d="M186.69 0l-10.82 23.48"/>
  <path d="M300 235.58l-22.86-10.51"/>
  <path d="M186.69 300l-10.82-24.29"/>
  <path d="M250.39 0v12.65"/>
  <path d="M214.08 300l9.56-24.29"/>
  <path d="M250.39 300v-11.55"/>
  <path d="M214.08 0l10.56 24.59"/>
</svg>
